<svg width="164" height="255" viewBox="0 0 164 255" fill="none" xmlns="http://www.w3.org/2000/svg">
<path id="Vector" fill-rule="evenodd" clip-rule="evenodd" d="M132.075 92.785C106.622 87.87 87.1789 83.191 82.9079 82.131L82.8779 81.808L82.8489 81.719C87.3269 80.778 109.303 76.598 133.136 78.776C176.147 82.72 171.168 24.801 136.907 34.866C149.368 2.22702 101.172 -10.869 92.8939 31.893C87.9449 57.498 83.2019 76.981 82.2009 81.072C82.1119 81.043 82.0239 81.042 81.9359 81.042L81.8179 81.072C80.9039 76.628 76.6919 54.673 78.8719 30.834C82.8189 -12.135 24.8429 -7.16098 34.9179 27.067C2.21793 14.618 -10.8611 62.737 31.9429 71.007C57.5429 75.98 77.0449 80.689 81.1699 81.69C81.1399 81.778 81.1109 81.896 81.1399 81.984V82.102C76.6029 83.044 54.6559 87.223 30.8529 85.045C-12.1281 81.101 -7.17907 139.021 27.0819 128.955C14.6209 161.594 62.8159 174.661 71.0939 131.898C75.4839 109.384 79.6669 91.579 81.2869 84.839C81.9649 98.112 80.6099 111.415 77.8699 124.364C74.9539 138.285 70.5639 151.882 65.9689 165.42C61.1669 178.87 56.7479 192.967 54.9209 207.505C52.9479 222.044 53.2719 237.024 56.1289 251.563V251.592L56.1589 251.74C56.6889 254.006 58.9569 255.418 61.2259 254.889C63.5229 254.33 64.9369 252.063 64.4069 249.797C61.2259 236.259 60.3419 222.221 61.6969 208.3C62.3449 201.325 63.5229 194.379 65.1439 187.522C66.7339 180.635 68.8259 173.896 70.8879 166.98C74.9829 153.206 78.8719 139.286 81.2579 125.012C83.2019 113.593 84.0859 101.968 83.5559 90.401C84.9699 99.819 86.6779 115.918 85.1169 132.987C81.1699 175.926 139.175 170.982 129.1 136.754C161.77 149.204 174.88 101.055 132.075 92.785Z" fill="#00AB37"/>
</svg>
