<svg width="341" height="443" viewBox="0 0 341 443" fill="none" xmlns="http://www.w3.org/2000/svg">
<path fill-rule="evenodd" clip-rule="evenodd" d="M274.62 192.484C221.697 182.288 181.269 172.58 172.387 170.382L172.326 169.711L172.265 169.528C181.575 167.574 227.271 158.904 276.825 163.422C366.256 171.603 355.904 51.449 284.666 72.33C310.576 4.6209 210.365 -22.5481 193.152 66.163C182.862 119.28 173 159.698 170.917 168.185C170.733 168.123 170.55 168.123 170.366 168.123L170.121 168.185C168.222 158.965 159.463 113.419 163.995 63.965C172.204 -25.1734 51.656 -14.8554 72.605 56.15C4.61285 30.3245 -22.5839 130.148 66.418 147.304C119.648 157.622 160.198 167.391 168.773 169.466C168.712 169.65 168.651 169.894 168.712 170.077V170.321C159.279 172.275 113.645 180.945 64.152 176.427C-25.2178 168.245 -14.9271 288.399 56.311 267.519C30.401 335.228 130.612 362.336 147.824 273.624C156.951 226.918 165.649 189.981 169.018 175.999C170.427 203.535 167.609 231.131 161.913 257.995C155.849 286.873 146.722 315.08 137.166 343.165C127.182 371.067 117.994 400.311 114.196 430.472C110.092 460.633 110.766 491.709 116.707 521.87V521.931L116.769 522.236C117.871 526.937 122.588 529.868 127.304 528.769C132.082 527.609 135.022 522.908 133.92 518.207C127.304 490.122 125.467 460.999 128.284 432.121C129.632 417.651 132.082 403.242 135.451 389.017C138.759 374.73 143.108 360.748 147.396 346.401C155.91 317.827 163.995 288.949 168.957 259.338C173 235.649 174.837 211.533 173.735 187.539C176.675 207.076 180.228 240.472 176.981 275.883C168.773 364.961 289.382 354.704 268.433 283.698C336.364 309.524 363.622 209.64 274.62 192.484Z" fill="#00AB37"/>
</svg>
